HIERARCHY
ROOT Hips
{
	OFFSET -14.64140 90.27770 -84.91600
	CHANNELS 6 Xposition Yposition Zposition Zrotation Xrotation Yrotation
	JOINT Spine
	{
		OFFSET 0.00000 13.20850 -1.60436
		CHANNELS 3 Zrotation Xrotation Yrotation
		JOINT Spine1
		{
			OFFSET 0.00000 8.61716 0.00000
			CHANNELS 3 Zrotation Xrotation Yrotation
			JOINT Spine2
			{
				OFFSET 0.00000 8.61717 0.00000
				CHANNELS 3 Zrotation Xrotation Yrotation
				JOINT Spine3
				{
					OFFSET 0.00000 8.61717 0.00000
					CHANNELS 3 Zrotation Xrotation Yrotation
					JOINT Neck
					{
						OFFSET 0.00000 11.07920 1.10792
						CHANNELS 3 Zrotation Xrotation Yrotation
						JOINT Neck1
						{
							OFFSET 0.00000 7.08032 0.00000
							CHANNELS 3 Zrotation Xrotation Yrotation
							JOINT Head
							{
								OFFSET 0.00000 7.08031 0.00000
								CHANNELS 3 Zrotation Xrotation Yrotation
								End site
								{
									OFFSET 0.00000 0.00000 0.00000
								}
							}
						}
					}
					JOINT RightShoulder
					{
						OFFSET -0.01000 7.91373 5.19711
						CHANNELS 3 Zrotation Xrotation Yrotation
						JOINT RightArm
						{
							OFFSET -18.41580 0.00000 0.00000
							CHANNELS 3 Zrotation Xrotation Yrotation
							JOINT RightForeArm
							{
								OFFSET -29.11090 0.00000 0.00000
								CHANNELS 3 Zrotation Xrotation Yrotation
								JOINT RightHand
								{
									OFFSET -24.65040 0.00000 0.00000
									CHANNELS 3 Zrotation Xrotation Yrotation
									JOINT RightHandThumb1
									{
										OFFSET -5.35114 -0.85590 3.97906
										CHANNELS 3 Zrotation Xrotation Yrotation
										JOINT RightHandThumb2
										{
											OFFSET -4.52789 0.00000 0.00000
											CHANNELS 3 Zrotation Xrotation Yrotation
											JOINT RightHandThumb3
											{
												OFFSET -2.46976 0.00000 0.00000
												CHANNELS 3 Zrotation Xrotation Yrotation
												End site
												{
													OFFSET 0.00000 0.00000 0.00000
												}
											}
										}
									}
									JOINT RightHandIndex1
									{
										OFFSET -14.26970 0.00000 2.88139
										CHANNELS 3 Zrotation Xrotation Yrotation
										JOINT RightHandIndex2
										{
											OFFSET -5.48836 0.00000 0.00000
											CHANNELS 3 Zrotation Xrotation Yrotation
											JOINT RightHandIndex3
											{
												OFFSET -3.01859 0.00000 0.00000
												CHANNELS 3 Zrotation Xrotation Yrotation
												End site
												{
													OFFSET 0.00000 0.00000 0.00000
												}
											}
										}
									}
									JOINT RightHandMiddle1
									{
										OFFSET -14.26970 0.00000 -0.09147
										CHANNELS 3 Zrotation Xrotation Yrotation
										JOINT RightHandMiddle2
										{
											OFFSET -6.17441 0.00000 0.00000
											CHANNELS 3 Zrotation Xrotation Yrotation
											JOINT RightHandMiddle3
											{
												OFFSET -3.56743 0.00000 0.00000
												CHANNELS 3 Zrotation Xrotation Yrotation
												End site
												{
													OFFSET 0.00000 0.00000 0.00000
												}
											}
										}
									}
									JOINT RightHandRing1
									{
										OFFSET -12.69180 0.00000 -3.06433
										CHANNELS 3 Zrotation Xrotation Yrotation
										JOINT RightHandRing2
										{
											OFFSET -5.62556 0.00000 0.00000
											CHANNELS 3 Zrotation Xrotation Yrotation
											JOINT RightHandRing3
											{
												OFFSET -3.56744 0.00000 0.00000
												CHANNELS 3 Zrotation Xrotation Yrotation
												End site
												{
													OFFSET 0.00000 0.00000 0.00000
												}
											}
										}
									}
									JOINT RightHandPinky1
									{
										OFFSET -11.11390 0.00000 -6.03719
										CHANNELS 3 Zrotation Xrotation Yrotation
										JOINT RightHandPinky2
										{
											OFFSET -4.52789 0.00000 0.00000
											CHANNELS 3 Zrotation Xrotation Yrotation
											JOINT RightHandPinky3
											{
												OFFSET -2.46976 0.00000 0.00000
												CHANNELS 3 Zrotation Xrotation Yrotation
												End site
												{
													OFFSET 0.00000 0.00000 0.00000
												}
											}
										}
									}
								}
							}
						}
					}
					JOINT LeftShoulder
					{
						OFFSET 0.01000 7.91373 5.19711
						CHANNELS 3 Zrotation Xrotation Yrotation
						JOINT LeftArm
						{
							OFFSET 18.41580 0.00000 0.00000
							CHANNELS 3 Zrotation Xrotation Yrotation
							JOINT LeftForeArm
							{
								OFFSET 29.11090 0.00000 0.00000
								CHANNELS 3 Zrotation Xrotation Yrotation
								JOINT LeftHand
								{
									OFFSET 24.65040 0.00000 0.00000
									CHANNELS 3 Zrotation Xrotation Yrotation
									JOINT LeftHandThumb1
									{
										OFFSET 5.35114 -0.85590 3.97906
										CHANNELS 3 Zrotation Xrotation Yrotation
										JOINT LeftHandThumb2
										{
											OFFSET 4.52789 0.00000 0.00000
											CHANNELS 3 Zrotation Xrotation Yrotation
											JOINT LeftHandThumb3
											{
												OFFSET 2.46977 0.00000 0.00000
												CHANNELS 3 Zrotation Xrotation Yrotation
												End site
												{
													OFFSET 0.00000 0.00000 0.00000
												}
											}
										}
									}
									JOINT LeftHandIndex1
									{
										OFFSET 14.26970 0.00000 2.88139
										CHANNELS 3 Zrotation Xrotation Yrotation
										JOINT LeftHandIndex2
										{
											OFFSET 5.48836 0.00000 0.00000
											CHANNELS 3 Zrotation Xrotation Yrotation
											JOINT LeftHandIndex3
											{
												OFFSET 3.01859 0.00000 0.00000
												CHANNELS 3 Zrotation Xrotation Yrotation
												End site
												{
													OFFSET 0.00000 0.00000 0.00000
												}
											}
										}
									}
									JOINT LeftHandMiddle1
									{
										OFFSET 14.26970 0.00000 -0.09147
										CHANNELS 3 Zrotation Xrotation Yrotation
										JOINT LeftHandMiddle2
										{
											OFFSET 6.17440 0.00000 0.00000
											CHANNELS 3 Zrotation Xrotation Yrotation
											JOINT LeftHandMiddle3
											{
												OFFSET 3.56744 0.00000 0.00000
												CHANNELS 3 Zrotation Xrotation Yrotation
												End site
												{
													OFFSET 0.00000 0.00000 0.00000
												}
											}
										}
									}
									JOINT LeftHandRing1
									{
										OFFSET 12.69180 0.00000 -3.06433
										CHANNELS 3 Zrotation Xrotation Yrotation
										JOINT LeftHandRing2
										{
											OFFSET 5.62556 0.00000 0.00000
											CHANNELS 3 Zrotation Xrotation Yrotation
											JOINT LeftHandRing3
											{
												OFFSET 3.56744 0.00000 0.00000
												CHANNELS 3 Zrotation Xrotation Yrotation
												End site
												{
													OFFSET 0.00000 0.00000 0.00000
												}
											}
										}
									}
									JOINT LeftHandPinky1
									{
										OFFSET 11.11390 0.00000 -6.03719
										CHANNELS 3 Zrotation Xrotation Yrotation
										JOINT LeftHandPinky2
										{
											OFFSET 4.52789 0.00000 0.00000
											CHANNELS 3 Zrotation Xrotation Yrotation
											JOINT LeftHandPinky3
											{
												OFFSET 2.46976 0.00000 0.00000
												CHANNELS 3 Zrotation Xrotation Yrotation
												End site
												{
													OFFSET 0.00000 0.00000 0.00000
												}
											}
										}
									}
								}
							}
						}
					}
					JOINT pCube4
					{
						OFFSET 0.00000 10.91090 1.10792
						CHANNELS 3 Zrotation Xrotation Yrotation
						End site
						{
							OFFSET 0.00000 0.00000 0.00000
						}
					}
				}
			}
		}
	}
	JOINT RightUpLeg
	{
		OFFSET -9.98441 0.00000 0.00000
		CHANNELS 3 Zrotation Xrotation Yrotation
		JOINT RightLeg
		{
			OFFSET 0.00000 -42.11790 0.00000
			CHANNELS 3 Zrotation Xrotation Yrotation
			JOINT RightFoot
			{
				OFFSET 0.00000 -45.00020 -0.00001
				CHANNELS 3 Zrotation Xrotation Yrotation
				JOINT RightForeFoot
				{
					OFFSET 0.00000 -3.74820 0.00000
					CHANNELS 3 Zrotation Xrotation Yrotation
					JOINT RightToeBase
					{
						OFFSET 0.00000 0.06325 14.43120
						CHANNELS 3 Zrotation Xrotation Yrotation
						End site
						{
							OFFSET 0.00000 0.00000 0.00000
						}
					}
				}
			}
		}
	}
	JOINT LeftUpLeg
	{
		OFFSET 9.98441 0.00000 0.00000
		CHANNELS 3 Zrotation Xrotation Yrotation
		JOINT LeftLeg
		{
			OFFSET 0.00000 -42.11800 0.00000
			CHANNELS 3 Zrotation Xrotation Yrotation
			JOINT LeftFoot
			{
				OFFSET 0.00000 -45.00070 0.00000
				CHANNELS 3 Zrotation Xrotation Yrotation
				JOINT LeftForeFoot
				{
					OFFSET 0.00000 -3.74824 0.00000
					CHANNELS 3 Zrotation Xrotation Yrotation
					JOINT LeftToeBase
					{
						OFFSET 0.00000 0.06325 14.43110
						CHANNELS 3 Zrotation Xrotation Yrotation
						End site
						{
							OFFSET 0.00000 0.00000 0.00000
						}
					}
				}
			}
		}
	}
}
MOTION
Frames: 4
Frame Time: 0.050000
-0.03511545857892092 0.006397344899515253 -0.024504130516893076 0.004739553677930782 0.01159282885614129 0.006105199465335432 -1.2653238514970657 1.6581409911697813 -0.9790742470022836 -0.9490749387785404 3.894475103958569 0.39858465076590144 -1.1967683121409598 -1.8973552562965785 -0.33753549503796243 0.5807238796432557 0.5957710284705652 -0.6936623277402797 0.6175793473300512 14.522726937109987 -2.4295415866771957 0.1685744662166386 0.28905185235025427 -7.650283974208288 1.1205066126266165 -15.001823105835024 -0.5721182100584986 -6.046200173922052 2.0305170049344117 -14.794998791749492 72.75820298687107 28.90121091387669 7.915681780543793 2.681354879300577 2.4032947045579105 66.92086550405945 21.645822221163254 -0.41937540134686685 -4.398997080087697 4.565184056663516 -0.12351500111648954 -1.6056783200761542 -0.012624522759273456 0.03195325430728404 -56.25129681575896 0.030669154178834965 0.0221296728901115 -56.22805675530174 -38.7420758360822 -0.029483553241224238 -0.029209793604013972 -0.012817317174113477 0.020642371796055086 0.03865101268887317 -0.03439116589905865 -0.04166655546330649 0.047619494586528775 -36.6683230639007 0.0042210801505798805 -0.0072066974881782675 -0.01620002045823241 -0.04624539327599066 0.009768984692660215 0.004646530700209842 -0.04058501768800604 0.0391878789015191 -19.775016217122875 -0.04027559284691415 -0.01549105704436117 -0.013289448421823807 0.04160287641320124 0.002664735630130996 0.017799312497223906 -0.0007081125209998365 -0.030777823208932138 24.04192666932227 -0.007906385967984784 0.012705920067313059 28.868319822393026 0.029422020688749117 0.035100716694259466 28.899647323799684 0.012925540049047444 -0.03379362824898593 5.879636133585203 1.444363592255997 13.221576068050748 -68.79496866140447 29.69329941396105 -7.49213694636065 3.648368406733831 -10.00115631961128 -56.47846500613761 -10.96878641714746 -0.3885357963336073 2.164863982533956 -0.48384447053881025 0.08489911160374765 -8.146771368237827 0.004431986751930698 0.025872449702539272 44.56802651126849 0.03262221561104321 -0.03202300717761658 44.53490996784084 12.437204793069297 0.014837792960384401 0.00571998922619087 0.03420606771151724 -0.006257382583332777 0.002649304375626622 0.047095250388007194 -0.0035176895097179515 -0.019905356090683463 11.120485246871041 -0.004610890433836792 0.0018790186699499045 0.01282654965096032 0.008123303066574716 -0.03106944472311494 0.009226767558276927 0.029938163910826886 -0.03353445136952756 4.778384411256622 -0.0162706436773348 -0.02269873990544465 0.04285289998177186 -0.024255108802228392 0.02954300322001703 -0.046344846815890184 -0.0044851044697064284 0.005705602221841565 -5.597248850611237 0.010908797658279885 -0.0412335443735811 -6.739051037062348 -0.04518825502381026 -0.04635039359242751 -6.7150494264917535 0.017524089983362055 0.0469688503804684 -0.03239987217757742 0.03430247534582718 -0.04416138205303661 7.996866191457287 3.4733111439157103 -19.268602165165596 -0.0017267298141023476 10.429944976556198 0.019807974225563046 -5.639420764838502 -15.610746247547409 3.2218731618493006 -0.03244914779334433 0.046003858719058426 -0.041603623964262135 -0.008908595885761513 4.72380428315364 0.036366009486106084 12.499461672106362 -8.251228854485232 6.86321276673575 -0.0420130970365739 46.39727204963807 -0.02697059126473861 -4.360767480288834 -14.71071987996439 -3.804855902901111 -0.003787733088816481 0.026846086084624212 -0.031092084880937645 0.03789968556318415 -10.729029402384533 0.03907739482778205 
-0.022447590270868765 -0.048422153291360646 -0.00744236849240587 0.03377780448409926 0.005554145618973578 -0.0476515766545284 -1.039383835355121 1.533098249847732 -1.0385708292499896 -0.893431615257493 3.915195287612465 0.344980086127802 -1.21521658128209 -1.9212699379049503 -0.2789601459059333 0.6321367076618819 0.5696046259445943 -0.6931655987722658 0.7925635470449416 14.524089078747142 -2.7972040869995185 0.18379814544743603 0.344635968934795 -8.324459192256676 1.2108534285838946 -15.011804849616441 -0.6494882371591892 -6.409452200441784 2.1390704785017833 -15.007905266754204 73.17917933060104 28.927504746033744 7.926931429286061 2.5791609694658204 2.3539089784785134 66.26422324875188 21.486272149785712 -0.36602641509569006 -4.3426374995368064 4.529751193356181 -0.10213074653109579 -1.6216075475583798 -0.026763621078047497 -0.035341057948475835 -56.27031572241761 0.02856008207814265 -0.01411677094403405 -56.19010164903285 -38.79532491138224 0.023548423797450205 0.03356388211730757 -0.040795870246115 0.0224808845375605 -0.02119727762622868 -0.012983321319794312 -0.023762124776523213 0.0022878048871379374 -36.690041384038786 0.03683460193714604 0.013203075493939693 -0.00013355850136802488 0.020461606141577722 -0.0341481321914997 -0.022698817569215275 -0.0017878615168227712 -0.03441584579720089 -19.751887086040586 0.02770863563523028 0.02963526940052966 -0.01161680853324545 -0.048390135471460094 0.002601384350963117 -0.042405679065341394 0.03148242299595121 0.008204611378791981 24.073246952776 -0.015214296455825099 0.021635183905692253 28.88434068948506 -0.02883625354339667 -0.02086831256329155 28.90944991244981 0.028949450097082503 -0.0073707400614033474 6.052624662272767 1.4941693949404802 13.272260276640544 -69.27350631619609 29.66564220313185 -7.112910897673277 3.5870616542641183 -9.55527041245587 -54.83286044873982 -11.332479107590927 -0.3528792174316996 2.1044465170396682 -0.45825928447007336 0.03497764273480019 -8.119887385735044 -0.004266188344718613 0.034080118057173855 44.54577932838296 -0.049344862223220466 0.012415737546647298 44.59787452856921 12.458712852994179 -0.007832018526059026 -0.0023602456513795163 -0.018273172405892994 0.029350915255990047 -0.015347498657127874 -0.03179743933763549 0.027296544377313606 -0.003707758805305884 11.138114398880104 -0.010159099555398114 0.01211602447171293 0.029355083858696406 0.0326307309662984 -0.030139448048815968 -0.031481219113439686 -0.003890645720041751 -0.028762241737540262 4.813512662065128 -0.016389841370652043 -0.005440689197982459 -0.021710893738035624 0.013153633964609751 -0.015761266337789962 -0.031052941815028896 -0.02900450732150638 -0.03884603526486212 -5.595391991448782 -0.01615475238753315 -0.04614627273657269 -6.69613315640229 -0.021124258378676302 0.00799712536110528 -6.688625619901417 -0.031068981585081357 -0.017477860921441307 0.013907636776748767 -0.0001299947764527539 -0.002698211578995105 8.030939871317452 3.538399360323165 -19.22686698902728 0.018769101158965303 10.392513156800476 0.02952164713678978 -5.665743818793328 -15.639065845880692 3.1560208625055095 0.017200157777043555 0.03789939800634554 -0.005632798081923793 -0.004099367883385541 4.708560210874616 -0.02285745500645216 12.456909207437823 -8.27766664277325 6.853027361866026 -0.008728385844566073 46.420384231389505 0.026529067608698206 -4.341479558107346 -14.723391629019543 -3.8275630162212697 -0.00542096602928684 -0.020174555253820187 0.021706050394722592 -0.03178955354011973 -10.709037065453481 -5.8193711864858236e-05 
0.0049284010804507925 0.0068067872803753236 0.03684655847966633 0.02067839589938067 0.026671140305871973 -0.03293051169281021 -0.7962013806063648 1.4960654298941396 -1.123273698029133 -0.9050805143925339 3.9159990701115874 0.39704051243657207 -1.219734282515762 -1.956613605917629 -0.24274771728440417 0.692270762952667 0.5714370337556703 -0.6911765473036391 0.9126001118547202 14.593196063979676 -3.0834786556967937 0.12620670270894818 0.3451688158662267 -9.121825961616327 1.243092080377973 -15.066978362096235 -0.733761452023055 -6.7435458141948645 2.2408956280527565 -15.19619914009413 73.28629992507017 29.146008492501615 8.158560440590415 2.7553466851573294 2.261580820864748 66.20608203814889 21.47889080411832 -0.3757027458404194 -4.296632730818665 4.481134912730158 -0.14404669693507274 -1.5607227821510308 -0.03152706208334944 0.007702954246050111 -56.19426809665926 0.0018913680618822509 0.03424317888907106 -56.21662449829635 -38.81544284412912 0.009933767458794124 -0.04262892018970705 -0.023867203506350354 -0.0054427333339185004 0.02664480314805848 0.03341520700141446 -0.01112122103904072 -0.029822984057994203 -36.71083572868954 0.010786733766343724 -0.00034303236812666793 0.0036176529071474555 -0.03070463864917377 -0.037154131950877384 0.03092877670175777 0.0012421725767404377 -0.024198543659679373 -19.746128793052723 0.0017859981814568624 0.00934329285546634 0.04418487687420733 0.022464512039213673 -0.034523475792804785 0.007066501551960996 0.040536503471479246 -0.02897390733718614 24.020583629677194 0.008596514329214516 0.009194941148589368 28.834016657385963 0.040911319868892654 0.046033707732712356 28.842361876107685 -0.012017898763377723 -0.027286868636831847 6.062231374356725 1.5206689470039754 13.29468900083628 -69.56359962760226 29.716926094297158 -6.385290439467634 3.232402961260802 -8.956381021132458 -53.2587054315734 -11.726546847374177 -0.2160877883933848 2.111166731801961 -0.4391943318414609 0.029742911199162544 -8.13571137337332 -0.02563491205573837 0.03579317159597857 44.5595845681225 0.04087271392573222 0.030774424797391016 44.56048970200997 12.487133204079955 -0.0014477673147588418 0.02373536776400433 0.026865504208055068 -0.03758116490027917 -0.03672322389648688 0.006235762385272652 -0.0005755966641720538 0.0071132065642318274 11.083709893922077 0.001471271098067172 -0.03709252519978619 0.021872775784314426 -0.04831070571609564 0.03125475097130174 0.04358080959543539 -0.0022763709744871895 0.03364196407323971 4.757874688077713 0.011810133310288308 -0.0364051898608889 -0.002125269182342986 -0.007273057099845088 -0.02768354041814783 0.0034596217385970476 -0.015649480157862532 -0.047367911781376906 -5.5539967983865335 0.03511907192622594 0.04783407780770723 -6.70712077747597 -0.04002415436934863 -0.024909778645076264 -6.753620718138736 0.005409157939388023 -0.028673829771847518 -0.014879051616703793 -0.009238001620663995 0.03444122014058055 8.031094550432826 3.5426029151860896 -19.228043125094707 -0.03848154337108199 10.390272799092157 -0.015526170309284822 -5.604161730778771 -15.673026403509995 3.2389713038641443 0.019929815798338312 0.013219081045681706 -0.005743222308626458 -0.02207334809891364 4.710631795157732 -0.023071941113683256 12.46164580584072 -8.259340582075053 6.855462562338277 0.002553699611838495 46.407760476677595 0.028387211944129142 -4.327298518188484 -14.739565329960536 -3.821596091585896 0.01799176176559629 0.030148579795928637 0.008948258832610792 0.02392967752936562 -10.704203475370138 0.012279865460949117 
-0.01719435509471594 -0.013902241443448028 -0.009490052990661886 0.049317222904554675 -0.014231288409988972 -0.01500884552605273 -0.5104580220143554 1.413473689043789 -1.1159238885640155 -0.9214305490782619 3.880635876598926 0.3937523365549464 -1.1718284102521528 -1.9560795430375169 -0.09944433814559295 0.6992203590436943 0.6025841719155909 -0.6602389396909956 0.9393081984974622 14.571778202832157 -3.360434127022857 0.15237969022987574 0.2909353769556905 -9.682000642977009 1.3675279508342153 -15.13622023290286 -0.8137541035382841 -6.949589019629026 2.251599919305688 -15.309262888546895 73.35018048710103 29.259387487458856 8.251149790690292 1.7178527596300637 2.158244316414459 66.12793053469606 21.591139204283426 -0.41405647960922703 -4.435058358106324 4.557326788216579 -0.1506492145327775 -1.6060193172130903 -0.022412394440246862 0.04163114964167346 -56.209857281710335 0.024999297479663708 0.0033023102376495005 -56.253916175702486 -38.8083531606055 0.03758234944052449 0.03137333772300193 -0.012375947783400024 0.01729676775874516 0.03376631532665522 0.018393154800842717 -0.028409030061222404 0.024533468750136362 -36.66713690307601 -0.018688596490391934 0.013678606158911484 0.012240993504890472 -0.04525254727966894 -0.026404688582685368 0.0002455681993093462 0.037281651791199945 0.00830744177109923 -19.717645029107302 0.014583721767963874 0.033352883843532716 0.02589468400587199 0.008148125349102595 0.03201629169025298 -0.016313954687659126 0.006362798410668536 0.03214940739229064 24.039142207606414 0.042233916904405644 -0.03541930266035716 28.820760551174157 -0.009410453450155721 -0.032225521942693965 28.880166133163037 0.019875555310163738 -0.04925512075066185 6.015251041043603 1.4981890435664487 13.344107625292551 -69.97230219635809 29.84026791578767 -5.630273665611268 2.790064589306912 -8.225846361320912 -51.86595510072331 -12.296547127857473 -0.19282271191146957 2.094442792939773 -0.4669980804150667 0.02207283769590182 -8.078201115560145 -0.020487752042707353 -0.017640031229906844 44.52164391161091 -0.007533023186284649 0.0015859041021480944 44.54699424477151 12.472320324126107 -0.020477794692484095 0.0004597515016986169 -0.031766364488729854 -0.03385593781781984 0.0007150707195461885 -0.00664236988612734 0.009497950967331243 -0.03913064038821517 11.095073982687547 -0.025808741905845783 -0.026985705922563913 -0.021000888490618503 0.018857595328653585 -0.008630845238324759 0.03062904715172814 -0.0486025415878386 0.016551554800628216 4.759830167249804 -0.025646981901648148 -0.03208462396931281 0.04147056458771127 -0.03224625045130142 -0.016334571738336877 -0.03409150541017083 -0.04486794627317539 -0.00761976579760462 -5.551247006015369 -0.04201862397942503 0.01413505056103082 -6.72473281564005 0.02829341374511698 -0.02060612877237004 -6.757721178542627 -0.0013517407459314975 0.029997736521196985 -0.01531962996253139 0.023677046220609094 -0.025261533706189623 8.034381899444453 3.4508219029332956 -19.16964378393285 0.03647012893079493 10.409482873426942 0.018175569474273862 -5.654744596893768 -15.632657741521012 3.2341036908664273 -0.009444842186656711 -0.04287599252926331 -0.014901998542256812 0.0388398260696274 4.661293667761586 -0.03500559886860989 12.450274045377636 -8.2094288429014 6.898670379284922 -0.02172022479835593 46.353983198058756 -0.036182549868644595 -4.338696464959641 -14.753718007798328 -3.8104191214180188 -0.015565610542414673 -0.0008764429489704236 0.0493975503859067 0.02266540954050071 -10.7700498775041 -0.03512471335106437 
